<svg xmlns="http://www.w3.org/2000/svg" viewBox="0 0 200 200" width="200" height="200" role="img" aria-label="Panda neutral · frame 6">
  <title>Panda neutral · frame 6</title>
  <g fill="#2b2b2b" stroke="#ffffff" stroke-width="0.875">
    <rect x="83.5" y="150" width="11" height="30" rx="5.5"/>
    <rect x="105.5" y="150" width="11" height="30" rx="5.5"/>
  </g>
  <g transform="rotate(-6 89 184)" stroke-linejoin="round">
    <path d="M84 170Q80 179 80 187Q80 196 89 196Q98 196 98 187Q98 179 94 170Z" fill="#ffffff" stroke="#2b2b2b" stroke-width="1.5"/>
    <path d="M80.2 185Q80.5 196 89 196Q97.5 196 97.8 185Q97 193.5 89 194Q81 193.5 80.2 185Z" fill="#000" opacity="0.11"/>
    <path d="M82 190Q83 196 89 196Q95 196 96 190Q95 194 89 194.6Q83 194 82 190Z" fill="#000" opacity="0.1"/>
    <rect x="81" y="168" width="16" height="6.5" rx="3.25" fill="#ffffff" stroke="#2b2b2b" stroke-width="1.5"/>
    <path d="M84 181H94" fill="none" stroke="#ff9ec2" stroke-width="2" stroke-linecap="round"/>
  </g>
  <g transform="rotate(6 111 184)" stroke-linejoin="round">
    <path d="M116 170Q120 179 120 187Q120 196 111 196Q102 196 102 187Q102 179 106 170Z" fill="#ffffff" stroke="#2b2b2b" stroke-width="1.5"/>
    <path d="M119.8 185Q119.5 196 111 196Q102.5 196 102.2 185Q103 193.5 111 194Q119 193.5 119.8 185Z" fill="#000" opacity="0.11"/>
    <path d="M118 190Q117 196 111 196Q105 196 104 190Q105 194 111 194.6Q117 194 118 190Z" fill="#000" opacity="0.1"/>
    <rect x="103" y="168" width="16" height="6.5" rx="3.25" fill="#ffffff" stroke="#2b2b2b" stroke-width="1.5"/>
    <path d="M106 181H116" fill="none" stroke="#ff9ec2" stroke-width="2" stroke-linecap="round"/>
  </g>
  <g fill="#2b2b2b" stroke="#ffffff" stroke-width="0.875" stroke-linejoin="round">
    <path d="M82 116Q68 110 60 121L60 134Q58 138 58 147L58 152A2.75 2.75 0 0 0 63.5 152L63.5 147Q64.4 148.5 65.25 147L65.25 152.5A2.75 2.75 0 0 0 70.75 152.5L70.75 147Q71.6 148.5 72.5 147L72.5 152A2.75 2.75 0 0 0 78 152L78 147Q78 138 76 134L82 116Z" transform="rotate(11 72 118)"/>
    <path d="M118 116Q132 110 140 121L140 134Q142 138 142 147L142 152A2.75 2.75 0 0 1 136.5 152L136.5 147Q135.6 148.5 134.75 147L134.75 152.5A2.75 2.75 0 0 1 129.25 152.5L129.25 147Q128.4 148.5 127.5 147L127.5 152A2.75 2.75 0 0 1 122 152L122 147Q122 138 124 134L118 116Z" transform="rotate(-108 128 118)"/>
  </g>
  <ellipse cx="100" cy="126" rx="27" ry="28" fill="#ffffff" stroke="#2b2b2b" stroke-width="3"/>
  <g transform="translate(1 -1) rotate(9 100 101)" stroke-linejoin="round">
    <g fill="#2b2b2b" stroke="#ffffff" stroke-width="0.875">
      <circle cx="64" cy="26" r="16"/><circle cx="136" cy="26" r="16"/>
    </g>
    <circle cx="64" cy="26" r="8" fill="#5b4a4a"/><circle cx="136" cy="26" r="8" fill="#5b4a4a"/>
    <circle cx="100" cy="56" r="46" fill="#ffffff" stroke="#2b2b2b" stroke-width="3"/>
    <g fill="#2b2b2b">
      <path d="M71 29C63 33 67 55 80 62C90 66 97 56 94 47C93 34 81 26 71 29Z"/>
      <path d="M129 29C137 33 133 55 120 62C110 66 103 56 106 47C107 34 119 26 129 29Z"/>
    </g>
    <g fill="#2b2b2b">
      <path d="M77 52Q83 47 91 59Q84 60 77 52Z" fill="#ffffff"/>
      <path d="M123 52Q117 47 109 59Q116 60 123 52Z" fill="#ffffff"/>
      <circle cx="88" cy="52" r="3.6"/><circle cx="118" cy="52" r="3.6"/>
      <circle cx="87" cy="50" r="1.4" fill="#ffffff"/>
      <circle cx="119" cy="50" r="1.4" fill="#ffffff"/>
    </g>
    <ellipse cx="100" cy="69" rx="5.8" ry="4" fill="#2b2b2b"/>
    <path d="M100 73V76" fill="none" stroke="#2b2b2b" stroke-width="2.5" stroke-linecap="round"/><ellipse cx="100" cy="81" rx="5" ry="5.5" fill="#8a4a4a"/><ellipse cx="100" cy="84.5" rx="3" ry="2.3" fill="#ff8fa3"/>
  </g>
</svg>
