<svg xmlns="http://www.w3.org/2000/svg" viewBox="0 0 200 200" width="200" height="200" role="img" aria-label="Panda neutral abre los brazos - frame 6">
  <title>Panda neutral - abre los brazos - frame 6</title>
  <g fill="#2b2b2b" stroke="#ffffff" stroke-width="0.875">
    <rect x="83.5" y="150" width="11" height="30" rx="5.5"/>
    <rect x="105.5" y="150" width="11" height="30" rx="5.5"/>
  </g>
  <g transform="rotate(-6 89 184)" stroke-linejoin="round">
    <path d="M84 170Q80 179 80 187Q80 196 89 196Q98 196 98 187Q98 179 94 170Z" fill="#ffffff" stroke="#2b2b2b" stroke-width="1.5"/>
    <path d="M80.2 185Q80.5 196 89 196Q97.5 196 97.8 185Q97 193.5 89 194Q81 193.5 80.2 185Z" fill="#000" opacity="0.11"/>
    <path d="M82 190Q83 196 89 196Q95 196 96 190Q95 194 89 194.6Q83 194 82 190Z" fill="#000" opacity="0.1"/>
    <rect x="81" y="168" width="16" height="6.5" rx="3.25" fill="#ffffff" stroke="#2b2b2b" stroke-width="1.5"/>
    <path d="M84 181H94" fill="none" stroke="#ff9ec2" stroke-width="2" stroke-linecap="round"/>
  </g>
  <g transform="rotate(6 111 184)" stroke-linejoin="round">
    <path d="M116 170Q120 179 120 187Q120 196 111 196Q102 196 102 187Q102 179 106 170Z" fill="#ffffff" stroke="#2b2b2b" stroke-width="1.5"/>
    <path d="M119.8 185Q119.5 196 111 196Q102.5 196 102.2 185Q103 193.5 111 194Q119 193.5 119.8 185Z" fill="#000" opacity="0.11"/>
    <path d="M118 190Q117 196 111 196Q105 196 104 190Q105 194 111 194.6Q117 194 118 190Z" fill="#000" opacity="0.1"/>
    <rect x="103" y="168" width="16" height="6.5" rx="3.25" fill="#ffffff" stroke="#2b2b2b" stroke-width="1.5"/>
    <path d="M106 181H116" fill="none" stroke="#ff9ec2" stroke-width="2" stroke-linecap="round"/>
  </g>
  <g fill="#2b2b2b" stroke="#ffffff" stroke-width="0.875" stroke-linejoin="round">
    <path d="M84 110Q66 105 59 120L58 149Q56.5 157 61 161Q63 162 64.5 160Q66 162 67.5 160Q69 162 70.5 160Q72.5 161.5 74.5 160.5Q76 161 76.5 159Q77.5 161 79.5 160Q82.5 159 82.5 156Q82.5 153 80 152.5Q78 152.5 77.5 155Q77 145 76 138L84 110Z" transform="rotate(34 80 117)"/>
    <path d="M116 110Q134 105 141 120L142 149Q143.5 157 139 161Q137 162 135.5 160Q134 162 132.5 160Q131 162 129.5 160Q127.5 161.5 125.5 160.5Q124 161 123.5 159Q122.5 161 120.5 160Q117.5 159 117.5 156Q117.5 153 120 152.5Q122 152.5 122.5 155Q123 145 124 138L116 110Z" transform="rotate(-34 120 117)"/>
  </g>
  <ellipse cx="100" cy="126" rx="27" ry="28" fill="#ffffff" stroke="#2b2b2b" stroke-width="3"/>
  <g transform="translate(0 -2) rotate(0 100 101)" stroke-linejoin="round">
    <g fill="#2b2b2b" stroke="#ffffff" stroke-width="0.875">
      <circle cx="64" cy="26" r="16"/><circle cx="136" cy="26" r="16"/>
    </g>
    <circle cx="64" cy="26" r="8" fill="#5b4a4a"/><circle cx="136" cy="26" r="8" fill="#5b4a4a"/>
    <circle cx="100" cy="56" r="46" fill="#ffffff" stroke="#2b2b2b" stroke-width="3"/>
    <g fill="#2b2b2b">
      <path d="M71 29C63 33 67 55 80 62C90 66 97 56 94 47C93 34 81 26 71 29Z"/>
      <path d="M129 29C137 33 133 55 120 62C110 66 103 56 106 47C107 34 119 26 129 29Z"/>
    </g>
    <g fill="#2b2b2b">
      <path d="M77 52Q83 47 91 59Q84 60 77 52Z" fill="#ffffff"/>
      <path d="M123 52Q117 47 109 59Q116 60 123 52Z" fill="#ffffff"/>
      <circle cx="85" cy="53" r="3.6"/><circle cx="115" cy="53" r="3.6"/>
      <circle cx="84" cy="51" r="1.4" fill="#ffffff"/>
      <circle cx="116" cy="51" r="1.4" fill="#ffffff"/>
    </g>
    <ellipse cx="100" cy="69" rx="5.8" ry="4" fill="#2b2b2b"/>
    <path d="M100 73V76" fill="none" stroke="#2b2b2b" stroke-width="2.5" stroke-linecap="round"/><ellipse cx="100" cy="81" rx="4" ry="3" fill="#8a4a4a"/>
  </g>
</svg>
