<svg xmlns="http://www.w3.org/2000/svg" viewBox="0 0 200 200" width="200" height="200" role="img" aria-label="Panda feliz">
  <title>Panda feliz</title>
  <defs>
    <g id="foot">
      <path d="M84 170Q80 179 80 187Q80 196 89 196Q98 196 98 187Q98 179 94 170Z" fill="#fff" stroke="#2b2b2b" stroke-width="1.5"/>
      <path d="M80.2 185Q80.5 196 89 196Q97.5 196 97.8 185Q97 193.5 89 194Q81 193.5 80.2 185Z" fill="#000" opacity="0.11"/>
      <rect x="81" y="168" width="16" height="6.5" rx="3.25" fill="#fff" stroke="#2b2b2b" stroke-width="1.5"/>
      <path d="M84 181H94" fill="none" stroke="#ff9ec2" stroke-width="2" stroke-linecap="round"/>
    </g>
    <path id="patch" d="M71 29C63 33 67 55 80 62C90 66 97 56 94 47C93 34 81 26 71 29Z" fill="#2b2b2b"/>
    <path id="spark" d="M0 -6 L1.4 -1.6 L6 0 L1.4 1.6 L0 6 L-1.4 1.6 L-6 0 L-1.4 -1.6 Z"/>
    <path id="arm" d="M82 116Q68 110 60 121L60 134Q58 138 58 147L58 152A2.75 2.75 0 0 0 63.5 152L63.5 147Q64.4 148.5 65.25 147L65.25 152.5A2.75 2.75 0 0 0 70.75 152.5L70.75 147Q71.6 148.5 72.5 147L72.5 152A2.75 2.75 0 0 0 78 152L78 147Q78 138 76 134L82 116Z"/>
  </defs>
  <g class="panda" data-emotion="feliz" fill="#2b2b2b" stroke-linejoin="round">
    <g class="legs" stroke="#fff" stroke-width="0.875"><rect x="83.5" y="150" width="11" height="30" rx="5.5"/><rect x="105.5" y="150" width="11" height="30" rx="5.5"/></g>
    <use href="#foot" transform="translate(0 -1.50) translate(0 -3) rotate(-6 89 184)"/>
    <use href="#foot" transform="translate(0 -1.50) matrix(-1 0 0 1 200 0) translate(0 -3) rotate(-6 89 184)"/>
    <g class="arms" stroke="#fff" stroke-width="0.875">
      <g transform="rotate(-5.20 80 118) rotate(82 80 118)"><use href="#arm"/></g>
      <g transform="rotate(5.20 120 118) matrix(-1 0 0 1 200 0) rotate(82 80 118)"><use href="#arm"/></g>
    </g>
    <ellipse transform="translate(100 126) scale(1 1.038) translate(-100 -126)" class="body" cx="100" cy="126" rx="27" ry="28" fill="#fff" stroke="#2b2b2b" stroke-width="3"/>
    <g class="head" transform="rotate(1.73 100 102) translate(0 -1.50) rotate(3 100 102)">
      <g class="ears" stroke="#fff" stroke-width="0.875"><circle cx="63" cy="24" r="17"/><circle cx="137" cy="24" r="17"/></g>
      <circle cx="63" cy="24" r="8.5" fill="#5b4a4a"/><circle cx="137" cy="24" r="8.5" fill="#5b4a4a"/>
      <circle class="skull" cx="100" cy="56" r="46" fill="#fff" stroke="#2b2b2b" stroke-width="3"/>
      <g class="patches">
        <use href="#patch" transform="translate(85 50) scale(1.04) rotate(-8) translate(-85 -50)"/>
        <use href="#patch" transform="matrix(-1 0 0 1 200 0) translate(85 50) scale(1.04) rotate(-8) translate(-85 -50)"/>
      </g>
      <g transform="translate(0.00 0) translate(100 55) scale(1.000 1.000) translate(-100 -55)" class="eyes">
        <path d="M78 51 Q85 47 92 56 Q85 60 78 51 Z" fill="#fff"/>
        <path d="M108 51 Q115 47 122 56 Q115 60 108 51 Z" fill="#fff"/>
        <circle cx="86" cy="54" r="3.4" fill="#2b2b2b"/><circle cx="116" cy="54" r="3.4" fill="#2b2b2b"/>
        <circle cx="84.8" cy="52.4" r="1.4" fill="#fff"/><circle cx="114.8" cy="52.4" r="1.4" fill="#fff"/>
      </g>
      <ellipse class="nose" cx="100" cy="69" rx="5.8" ry="4"/>
      <g transform="translate(0.00 0) translate(100 80) scale(1 1.000) translate(-100 -80)" class="mouth">
        <path d="M88 78 Q100 86 112 78" fill="none" stroke="#2b2b2b" stroke-width="2.5" stroke-linecap="round"/>
      </g>
      <g class="blush" fill="#ffb3c1" opacity="0.86"><ellipse cx="70" cy="66" rx="7" ry="4"/><ellipse cx="130" cy="66" rx="7" ry="4"/></g>
    </g>
    <g transform="translate(0.00 0.00) translate(100 40) scale(1.075) translate(-100 -40)" opacity="0.88" class="extra" fill="#ffd23f">
      <use href="#spark" transform="translate(40 30) scale(1.1)"/>
      <use href="#spark" transform="translate(162 28) scale(1.2)"/>
      <use href="#spark" transform="translate(172 64) scale(0.8)"/>
    </g>
  </g>
</svg>
