<svg xmlns="http://www.w3.org/2000/svg" viewBox="0 0 200 200" width="200" height="200" role="img" aria-label="Panda feliz · frame 1">
  <title>Panda feliz celebrando · frame 1</title>
  <g transform="translate(0 -4)">
  <g fill="#2b2b2b" stroke="#ffffff" stroke-width="1.75">
    <rect x="83.5" y="150" width="11" height="30" rx="5.5"/>
    <rect x="105.5" y="150" width="11" height="30" rx="5.5"/>
  </g>
  <g fill="#ffffff" stroke="#2b2b2b" stroke-width="1.5">
    <rect x="81.5" y="169" width="15" height="25" rx="7.5"/>
    <rect x="80.5" y="167" width="17" height="7" rx="3.5"/>
    <rect x="103.5" y="169" width="15" height="25" rx="7.5"/>
    <rect x="102.5" y="167" width="17" height="7" rx="3.5"/>
  </g>
  <g fill="none" stroke="#ff9ec2" stroke-width="2" stroke-linecap="round">
    <path d="M83 180H95"/><path d="M105 180H117"/>
  </g>
  <ellipse cx="100" cy="126" rx="27" ry="28" fill="#ffffff" stroke="#2b2b2b" stroke-width="3"/>
  <g fill="#2b2b2b" stroke="#ffffff" stroke-width="1.75" stroke-linejoin="round">
    <path d="M77 113Q77 107 69 107Q60 108 59 120L59 141a3 8 0 0 0 6 0a3 8 0 0 0 6 0a3 8 0 0 0 6 0L77 113Z" transform="rotate(122 77 113)"/>
    <path d="M123 113Q123 107 131 107Q140 108 141 120L141 141a3 8 0 0 1 -6 0a3 8 0 0 1 -6 0a3 8 0 0 1 -6 0L123 113Z" transform="rotate(-122 123 113)"/>
  </g>
  <g transform="translate(0 -1) rotate(3 100 101)" stroke-linejoin="round">
    <g fill="#2b2b2b" stroke="#ffffff" stroke-width="1.75">
      <circle cx="64" cy="26" r="16"/><circle cx="136" cy="26" r="16"/>
    </g>
    <circle cx="64" cy="26" r="8" fill="#5b4a4a"/><circle cx="136" cy="26" r="8" fill="#5b4a4a"/>
    <circle cx="100" cy="56" r="46" fill="#ffffff" stroke="#2b2b2b" stroke-width="3"/>
    <g fill="#2b2b2b">
      <path d="M70 28C60 31 62 50 76 61C87 69 100 60 96 48C95 32 81 24 70 28Z"/>
      <path d="M130 28C140 31 138 50 124 61C113 69 100 60 104 48C105 32 119 24 130 28Z"/>
    </g>
    <g>
      <path d="M76 50Q88 46 94 60Q82 64 76 50Z" fill="#ffffff"/>
      <path d="M124 50Q112 46 106 60Q118 64 124 50Z" fill="#ffffff"/>
      <circle cx="86" cy="55" r="4.6" fill="#2b2b2b"/><circle cx="114" cy="55" r="4.6" fill="#2b2b2b"/>
      <circle cx="84" cy="52.5" r="1.8" fill="#ffffff"/><circle cx="116" cy="52.5" r="1.8" fill="#ffffff"/>
      <circle cx="88" cy="58" r="1" fill="#ffffff"/><circle cx="112" cy="58" r="1" fill="#ffffff"/>
    </g>
    <ellipse cx="100" cy="69" rx="5.8" ry="4" fill="#2b2b2b"/>
    <path d="M100 73V76" fill="none" stroke="#2b2b2b" stroke-width="2.5" stroke-linecap="round"/><path d="M82 78Q100 101 118 78Q100 88 82 78Z" fill="#8a4a4a"/><path d="M91 87Q100 96 109 87Q100 91 91 87Z" fill="#ff8fa3"/>
    <g fill="#ffb3c1" opacity="0.8">
      <ellipse cx="70" cy="67" rx="7" ry="4"/><ellipse cx="130" cy="67" rx="7" ry="4"/>
    </g>
  </g>
  </g>
</svg>
