<svg xmlns="http://www.w3.org/2000/svg" width="1140" height="1680" viewBox="0 0 1140 1680" font-family="sans-serif">
  <defs>
    <!-- gradients -->
    <linearGradient id="g1" x1="0" y1="0" x2="1" y2="1">
      <stop offset="0" stop-color="#241a52"/>
      <stop offset="0.55" stop-color="#5b3c86"/>
      <stop offset="1" stop-color="#c479b8"/>
    </linearGradient>
    <linearGradient id="g2" x1="0" y1="0" x2="0" y2="1">
      <stop offset="0" stop-color="#fff3ef"/>
      <stop offset="0.6" stop-color="#ffd2e0"/>
      <stop offset="1" stop-color="#ffb0c6"/>
    </linearGradient>
    <radialGradient id="g3" cx="0.7" cy="0.3" r="1">
      <stop offset="0" stop-color="#243168"/>
      <stop offset="1" stop-color="#080b1f"/>
    </radialGradient>
    <linearGradient id="g4" x1="0" y1="0" x2="1" y2="1">
      <stop offset="0" stop-color="#06121b"/>
      <stop offset="1" stop-color="#0c2230"/>
    </linearGradient>
    <radialGradient id="g5orb" cx="0.5" cy="0.5" r="0.5">
      <stop offset="0" stop-color="#ffcaa6"/>
      <stop offset="0.6" stop-color="#d6a4ff"/>
      <stop offset="1" stop-color="#a7b6ff"/>
    </radialGradient>
    <linearGradient id="g6" x1="0" y1="0" x2="1" y2="1">
      <stop offset="0" stop-color="#efe6fb"/>
      <stop offset="1" stop-color="#d3bdf2"/>
    </linearGradient>
    <linearGradient id="g7" x1="0" y1="0" x2="1" y2="1">
      <stop offset="0" stop-color="#e2f7ee"/>
      <stop offset="1" stop-color="#aee4d4"/>
    </linearGradient>
    <linearGradient id="g8" x1="0" y1="0" x2="1" y2="1">
      <stop offset="0" stop-color="#ffe9d6"/>
      <stop offset="1" stop-color="#ffd2b0"/>
    </linearGradient>
    <linearGradient id="g9blob" x1="0" y1="0" x2="1" y2="1">
      <stop offset="0" stop-color="#b8a6ff"/>
      <stop offset="0.5" stop-color="#ff9ecb"/>
      <stop offset="1" stop-color="#ffd29e"/>
    </linearGradient>
    <linearGradient id="g10" x1="0" y1="1" x2="0" y2="0">
      <stop offset="0" stop-color="#ff7a8a"/>
      <stop offset="0.55" stop-color="#ff9a8b"/>
      <stop offset="1" stop-color="#ffd6a5"/>
    </linearGradient>
    <radialGradient id="sun10" cx="0.5" cy="0.5" r="0.5">
      <stop offset="0" stop-color="#fff7e8"/>
      <stop offset="1" stop-color="#fff7e8" stop-opacity="0"/>
    </radialGradient>

    <!-- blur filters -->
    <filter id="soft" x="-60%" y="-60%" width="220%" height="220%"><feGaussianBlur stdDeviation="11"/></filter>
    <filter id="soft2" x="-80%" y="-80%" width="260%" height="260%"><feGaussianBlur stdDeviation="22"/></filter>

    <clipPath id="card"><rect x="0" y="0" width="525" height="300" rx="20"/></clipPath>
  </defs>

  <rect width="1140" height="1680" fill="#fbfaf7"/>

  <!-- ============ CARD 1 · twilight wave ============ -->
  <g transform="translate(30,30)" clip-path="url(#card)">
    <rect width="525" height="300" fill="url(#g1)"/>
    <circle cx="470" cy="64" r="78" fill="#ffeede" opacity="0.85" filter="url(#soft2)"/>
    <circle cx="455" cy="58" r="38" fill="#fff6ea" opacity="0.95"/>
    <g fill="#ffffff">
      <circle cx="70" cy="50" r="1.6" opacity="0.8"/><circle cx="130" cy="38" r="1.2" opacity="0.6"/>
      <circle cx="210" cy="60" r="1.8" opacity="0.7"/><circle cx="300" cy="34" r="1.3" opacity="0.5"/>
      <circle cx="40" cy="110" r="1.4" opacity="0.6"/>
    </g>
    <g stroke="#ffffff" fill="none" stroke-linecap="round">
      <path d="M-20,230 C120,180 220,270 360,215 S560,200 560,200" stroke-opacity="0.30" stroke-width="2.5"/>
      <path d="M-20,255 C120,210 230,295 360,240 S560,228 560,228" stroke-opacity="0.20" stroke-width="2"/>
      <path d="M-20,205 C140,160 220,245 360,190 S560,176 560,176" stroke-opacity="0.14" stroke-width="1.5"/>
    </g>
    <text x="42" y="96" fill="#ffffff" font-family="Georgia, serif" font-size="50" letter-spacing="0.5">flove<tspan fill="#ffffff" fill-opacity="0.55" font-size="32">.org</tspan></text>
    <text x="44" y="124" fill="#ffe7f4" font-family="Georgia, serif" font-size="16" font-style="italic" letter-spacing="1.5">let it flow</text>
    <text x="44" y="252" fill="#ffffff" font-size="16.5" letter-spacing="2">+34 665 026 106</text>
    <text x="44" y="276" fill="#ffffff" fill-opacity="0.85" font-size="15" letter-spacing="0.5">marc@flove.org</text>
  </g>

  <!-- ============ CARD 2 · dawn clouds ============ -->
  <g transform="translate(585,30)" clip-path="url(#card)">
    <rect width="525" height="300" fill="url(#g2)"/>
    <circle cx="120" cy="70" r="70" fill="#ffffff" opacity="0.7" filter="url(#soft2)"/>
    <circle cx="220" cy="50" r="48" fill="#ffffff" opacity="0.6" filter="url(#soft2)"/>
    <circle cx="430" cy="240" r="90" fill="#ffe0ad" opacity="0.45" filter="url(#soft2)"/>
    <path d="M470,86 c0,-22 32,-22 32,0 c0,18 -32,34 -32,34 c0,0 -32,-16 -32,-34 c0,-22 32,-22 32,0 z" fill="#ff7a9c" opacity="0.85" filter="url(#soft)"/>
    <text x="42" y="150" fill="#6a2e4d" font-family="'Trebuchet MS', sans-serif" font-size="52" font-weight="bold" letter-spacing="-0.5">flove<tspan fill="#b65a7a" font-weight="normal" font-size="32">.org</tspan></text>
    <text x="44" y="178" fill="#a85a72" font-family="'Trebuchet MS', sans-serif" font-size="15" letter-spacing="3">SOFT BY DESIGN</text>
    <text x="44" y="252" fill="#6a2e4d" font-size="16.5" letter-spacing="2">+34 665 026 106</text>
    <text x="44" y="276" fill="#8a4862" font-size="15">marc@flove.org</text>
  </g>

  <!-- ============ CARD 3 · night constellation ============ -->
  <g transform="translate(30,360)" clip-path="url(#card)">
    <rect width="525" height="300" fill="url(#g3)"/>
    <g stroke="#9fb4ff" stroke-width="1" stroke-opacity="0.5" fill="none">
      <path d="M360,60 L420,110 L470,90 L455,160 L390,150 L420,110"/>
    </g>
    <g fill="#dfe7ff">
      <circle cx="360" cy="60" r="3"/><circle cx="420" cy="110" r="3.6"/><circle cx="470" cy="90" r="2.6"/>
      <circle cx="455" cy="160" r="3"/><circle cx="390" cy="150" r="2.6"/>
    </g>
    <g fill="#ffffff">
      <circle cx="60" cy="40" r="1.4" opacity="0.7"/><circle cx="150" cy="70" r="1" opacity="0.5"/>
      <circle cx="100" cy="120" r="1.6" opacity="0.8"/><circle cx="250" cy="40" r="1.1" opacity="0.5"/>
      <circle cx="310" cy="200" r="1.3" opacity="0.6"/><circle cx="200" cy="230" r="1" opacity="0.5"/>
    </g>
    <circle cx="420" cy="115" r="60" fill="#6f86ff" opacity="0.18" filter="url(#soft2)"/>
    <text x="42" y="100" fill="#eaf0ff" font-family="'Century Gothic','Futura',sans-serif" font-size="46" letter-spacing="1">flove<tspan fill="#9fb4ff" font-size="30">.org</tspan></text>
    <text x="44" y="128" fill="#9fb4ff" font-size="14" letter-spacing="2.5">LOVE, IN COORDINATES</text>
    <text x="44" y="252" fill="#eaf0ff" font-size="16.5" letter-spacing="2">+34 665 026 106</text>
    <text x="44" y="276" fill="#c3cdf0" font-size="15">marc@flove.org</text>
  </g>

  <!-- ============ CARD 4 · aurora ============ -->
  <g transform="translate(585,360)" clip-path="url(#card)">
    <rect width="525" height="300" fill="url(#g4)"/>
    <g filter="url(#soft2)" opacity="0.8">
      <path d="M60,-40 C40,80 120,160 80,340 L150,340 C190,150 110,70 130,-40 Z" fill="#4be3a0" opacity="0.5"/>
      <path d="M180,-40 C160,90 240,150 200,340 L270,340 C310,160 230,80 250,-40 Z" fill="#49c7d6" opacity="0.45"/>
      <path d="M320,-40 C300,80 380,170 340,340 L410,340 C450,150 370,70 390,-40 Z" fill="#9b6cff" opacity="0.45"/>
    </g>
    <g fill="#ffffff"><circle cx="80" cy="250" r="1.2" opacity="0.6"/><circle cx="420" cy="230" r="1.4" opacity="0.6"/><circle cx="470" cy="60" r="1.2" opacity="0.5"/></g>
    <text x="42" y="100" fill="#eafff6" font-family="'Trebuchet MS',sans-serif" font-size="48" font-weight="bold" letter-spacing="0.5">flove<tspan font-weight="normal" fill="#7fe9c4" font-size="30">.org</tspan></text>
    <text x="44" y="128" fill="#7fe9c4" font-size="14" letter-spacing="2.5">A GENTLE NETWORK</text>
    <text x="44" y="252" fill="#eafff6" font-size="16.5" letter-spacing="2">+34 665 026 106</text>
    <text x="44" y="276" fill="#b6e9d8" font-size="15">marc@flove.org</text>
  </g>

  <!-- ============ CARD 5 · cream minimal orb ============ -->
  <g transform="translate(30,690)" clip-path="url(#card)">
    <rect width="525" height="300" fill="#f5f1e8"/>
    <circle cx="430" cy="150" r="105" fill="url(#g5orb)" opacity="0.9" filter="url(#soft2)"/>
    <circle cx="430" cy="150" r="62" fill="url(#g5orb)" opacity="0.95"/>
    <line x1="44" y1="200" x2="250" y2="200" stroke="#c9c2b3" stroke-width="1"/>
    <text x="42" y="120" fill="#2a2730" font-family="Georgia, serif" font-size="50" letter-spacing="0.5">flove<tspan fill="#9b94a6" font-size="32">.org</tspan></text>
    <text x="44" y="150" fill="#7a7488" font-family="Georgia, serif" font-style="italic" font-size="16" letter-spacing="1">shaped by feeling</text>
    <text x="44" y="245" fill="#2a2730" font-size="16.5" letter-spacing="2">+34 665 026 106</text>
    <text x="44" y="269" fill="#6a6478" font-size="15">marc@flove.org</text>
  </g>

  <!-- ============ CARD 6 · lavender petals ============ -->
  <g transform="translate(585,690)" clip-path="url(#card)">
    <rect width="525" height="300" fill="url(#g6)"/>
    <g opacity="0.55" filter="url(#soft)">
      <ellipse cx="430" cy="70" rx="46" ry="20" fill="#c79cf0" transform="rotate(25 430 70)"/>
      <ellipse cx="470" cy="150" rx="40" ry="17" fill="#b98cf0" transform="rotate(-15 470 150)"/>
      <ellipse cx="390" cy="200" rx="50" ry="22" fill="#d6b3ff" transform="rotate(40 390 200)"/>
      <ellipse cx="120" cy="250" rx="44" ry="18" fill="#cba6f5" transform="rotate(-20 120 250)"/>
    </g>
    <text x="42" y="118" fill="#4a356b" font-family="'Trebuchet MS',sans-serif" font-size="50" letter-spacing="-0.5">flove<tspan fill="#8b6fb5" font-size="32">.org</tspan></text>
    <text x="44" y="146" fill="#7a5fa5" font-size="15" letter-spacing="2.5" font-style="italic">drift &amp; connect</text>
    <text x="44" y="252" fill="#4a356b" font-size="16.5" letter-spacing="2">+34 665 026 106</text>
    <text x="44" y="276" fill="#6c5292" font-size="15">marc@flove.org</text>
  </g>

  <!-- ============ CARD 7 · mint flow stream ============ -->
  <g transform="translate(30,1020)" clip-path="url(#card)">
    <rect width="525" height="300" fill="url(#g7)"/>
    <g fill="#2f9d86">
      <circle cx="300" cy="70" r="6" opacity="0.85"/><circle cx="330" cy="62" r="5" opacity="0.75"/>
      <circle cx="362" cy="60" r="6.5" opacity="0.9"/><circle cx="395" cy="68" r="4.5" opacity="0.7"/>
      <circle cx="425" cy="82" r="6" opacity="0.85"/><circle cx="452" cy="104" r="5" opacity="0.7"/>
      <circle cx="470" cy="134" r="6.5" opacity="0.9"/><circle cx="476" cy="168" r="4.5" opacity="0.65"/>
      <circle cx="466" cy="202" r="6" opacity="0.8"/><circle cx="444" cy="230" r="5" opacity="0.7"/>
      <circle cx="414" cy="248" r="6.5" opacity="0.85"/><circle cx="380" cy="256" r="4" opacity="0.6"/>
    </g>
    <text x="42" y="118" fill="#1f5e54" font-family="'Century Gothic','Futura',sans-serif" font-size="46" letter-spacing="1">flove<tspan fill="#4faf9b" font-size="30">.org</tspan></text>
    <text x="44" y="146" fill="#3a8576" font-size="14" letter-spacing="2.5">THE FLOW OF THINGS</text>
    <text x="44" y="252" fill="#1f5e54" font-size="16.5" letter-spacing="2">+34 665 026 106</text>
    <text x="44" y="276" fill="#357f70" font-size="15">marc@flove.org</text>
  </g>

  <!-- ============ CARD 8 · peach bokeh ============ -->
  <g transform="translate(585,1020)" clip-path="url(#card)">
    <rect width="525" height="300" fill="url(#g8)"/>
    <g filter="url(#soft2)">
      <circle cx="430" cy="70" r="55" fill="#ffb783" opacity="0.55"/>
      <circle cx="480" cy="160" r="38" fill="#ff9e9e" opacity="0.5"/>
      <circle cx="380" cy="200" r="46" fill="#ffcf9e" opacity="0.5"/>
      <circle cx="150" cy="250" r="40" fill="#ffb0a0" opacity="0.4"/>
      <circle cx="300" cy="40" r="28" fill="#ffd9b0" opacity="0.5"/>
    </g>
    <text x="42" y="118" fill="#7a4a2e" font-family="Georgia, serif" font-size="50">flove<tspan fill="#bd8055" font-size="32">.org</tspan></text>
    <text x="44" y="146" fill="#a5663f" font-family="Georgia, serif" font-style="italic" font-size="16" letter-spacing="1">warm signals</text>
    <text x="44" y="252" fill="#7a4a2e" font-size="16.5" letter-spacing="2">+34 665 026 106</text>
    <text x="44" y="276" fill="#9a5f3a" font-size="15">marc@flove.org</text>
  </g>

  <!-- ============ CARD 9 · organic blob ============ -->
  <g transform="translate(30,1350)" clip-path="url(#card)">
    <rect width="525" height="300" fill="#ffffff"/>
    <path d="M330,40 C420,20 510,70 505,150 C500,235 430,290 340,275 C270,263 250,210 285,160 C315,118 250,60 330,40 Z" fill="url(#g9blob)" opacity="0.85" filter="url(#soft)"/>
    <path d="M360,90 C410,80 450,110 445,150 C440,195 400,215 360,205 C330,197 325,165 345,142 C360,124 330,98 360,90 Z" fill="url(#g9blob)" opacity="0.6"/>
    <text x="42" y="120" fill="#2b2733" font-family="'Trebuchet MS',sans-serif" font-size="50" font-weight="bold" letter-spacing="-0.5">flove<tspan fill="#a99fc7" font-weight="normal" font-size="32">.org</tspan></text>
    <text x="44" y="148" fill="#8a82a0" font-size="15" letter-spacing="2.5">ke fluya</text>
    <text x="44" y="245" fill="#2b2733" font-size="16.5" letter-spacing="2">+34 665 026 106</text>
    <text x="44" y="269" fill="#6c6582" font-size="15">marc@flove.org</text>
  </g>

  <!-- ============ CARD 10 · sunrise ripples ============ -->
  <g transform="translate(585,1350)" clip-path="url(#card)">
    <rect width="525" height="300" fill="url(#g10)"/>
    <circle cx="420" cy="150" r="120" fill="url(#sun10)" filter="url(#soft)"/>
    <g stroke="#fff3e0" fill="none" stroke-opacity="0.45">
      <circle cx="420" cy="150" r="46" stroke-width="2"/>
      <circle cx="420" cy="150" r="74" stroke-width="1.6" stroke-opacity="0.32"/>
      <circle cx="420" cy="150" r="104" stroke-width="1.2" stroke-opacity="0.2"/>
    </g>
    <circle cx="420" cy="150" r="26" fill="#fff7ea" opacity="0.95"/>
    <text x="42" y="118" fill="#fff6ef" font-family="Georgia, serif" font-size="50" letter-spacing="0.5">flove<tspan fill="#ffe2cf" font-size="32">.org</tspan></text>
    <text x="44" y="146" fill="#ffe2cf" font-family="Georgia, serif" font-style="italic" font-size="16" letter-spacing="1">where love flows</text>
    <text x="44" y="252" fill="#fff6ef" font-size="16.5" letter-spacing="2">+34 665 026 106</text>
    <text x="44" y="276" fill="#ffe9da" font-size="15">marc@flove.org</text>
  </g>
</svg>
