<svg xmlns="http://www.w3.org/2000/svg" viewBox="0 0 200 200" width="200" height="200" role="img" aria-label="Panda enfadado">
  <title>Panda enfadado</title>
  <g class="panda" data-emotion="enfadado">
  <!-- cuerpo (≈ mitad de la cabeza) -->
  <g class="body">
    <ellipse cx="100" cy="174" rx="40" ry="28" fill="#ffffff" stroke="#2b2b2b" stroke-width="3"/>
    <ellipse cx="66" cy="166" rx="12" ry="19" fill="#2b2b2b" transform="rotate(22 66 166)"/>
    <ellipse cx="134" cy="166" rx="12" ry="19" fill="#2b2b2b" transform="rotate(-22 134 166)"/>
    <ellipse cx="84" cy="194" rx="13" ry="9" fill="#2b2b2b"/>
    <ellipse cx="116" cy="194" rx="13" ry="9" fill="#2b2b2b"/>
  </g>
  <!-- cabeza (doble que el cuerpo) -->
  <g class="head">
    <circle cx="60" cy="46" r="21" fill="#2b2b2b"/>
    <circle cx="140" cy="46" r="21" fill="#2b2b2b"/>
    <circle cx="60" cy="46" r="10" fill="#5b4a4a"/>
    <circle cx="140" cy="46" r="10" fill="#5b4a4a"/>
    <circle cx="100" cy="92" r="60" fill="#ffffff" stroke="#2b2b2b" stroke-width="3"/>
  </g>
  <!-- parches manga: diagonal arriba y afuera -->
  <g class="patches" fill="#2b2b2b">
    <ellipse cx="76" cy="86" rx="27" ry="16" transform="rotate(-34 76 86)"/>
    <ellipse cx="124" cy="86" rx="27" ry="16" transform="rotate(34 124 86)"/>
  </g>
  <g class="eyes">
    <ellipse cx="80" cy="94" rx="12" ry="5.5" fill="#ffffff" transform="rotate(-34 80 93)"/>
    <ellipse cx="120" cy="94" rx="12" ry="5.5" fill="#ffffff" transform="rotate(34 120 93)"/>
    <circle cx="80" cy="94" r="5" fill="#2b2b2b"/>
    <circle cx="120" cy="94" r="5" fill="#2b2b2b"/>
  </g>
  <g class="brows" fill="none" stroke="#2b2b2b" stroke-width="5" stroke-linecap="round">
    <path d="M62 50 Q76 54 90 64"/>
    <path d="M138 50 Q124 54 110 64"/>
  </g>
  <g class="nose"><ellipse cx="100" cy="110" rx="8" ry="5.5" fill="#2b2b2b"/></g>
  <g class="mouth">
    <path d="M86 124 Q100 121 114 124 Q108 139 100 139 Q92 139 86 124 Z" fill="#8a4a4a"/>
    <path d="M88 125 H112" stroke="#ffffff" stroke-width="3"/>
  </g>
  </g>
</svg>
